<?xml version="1.0" standalone="no"?>
<!DOCTYPE svg PUBLIC "-//W3C//DTD SVG 20010904//EN"
 "http://www.w3.org/TR/2001/REC-SVG-20010904/DTD/svg10.dtd">
<svg version="1.0" xmlns="http://www.w3.org/2000/svg"
 width="1000.000000pt" height="1000.000000pt" viewBox="0 0 1000.000000 1000.000000"
 preserveAspectRatio="xMidYMid meet">

<g transform="translate(0.000000,1000.000000) scale(0.100000,-0.100000)"
fill="#000000" stroke="none">
<path d="M10 5000 l0 -5000 4995 0 4995 0 0 5000 0 5000 -4995 0 -4995 0 0
-5000z m3652 1089 c143 -31 217 -114 218 -245 0 -108 -59 -188 -172 -231 -33
-12 -90 -17 -245 -21 l-203 -4 0 -134 0 -134 -180 0 -180 0 0 390 0 390 355 0
c224 0 374 -4 407 -11z m608 -224 c0 -257 5 -284 55 -323 22 -17 41 -22 92
-22 144 0 163 44 163 381 l0 199 150 0 150 0 0 -249 c0 -223 -2 -256 -21 -316
-48 -156 -196 -235 -439 -235 -224 0 -363 66 -426 202 l-29 63 -3 268 -3 267
155 0 156 0 0 -235z m1626 124 c-4 -62 -14 -128 -22 -148 -26 -65 -110 -104
-257 -118 -37 -3 -69 -9 -72 -13 -2 -3 38 -11 89 -18 151 -19 212 -49 243
-120 7 -18 16 -82 20 -142 l6 -110 -471 0 -472 0 0 390 0 390 471 0 472 0 -7
-111z m362 -76 l-3 -188 -44 4 c-105 7 -191 53 -216 113 -8 21 -18 87 -21 148
l-7 110 147 0 146 0 -2 -187z m852 -203 l0 -390 -150 0 -150 0 0 390 0 390
150 0 150 0 0 -390z m-850 -100 l0 -80 235 0 235 0 0 -105 0 -105 -382 0 -381
0 7 110 c7 114 16 152 44 184 36 39 127 72 210 75 l32 1 0 -80z m-2740 -316
c0 -4 -16 -22 -35 -40 -31 -31 -39 -34 -94 -34 -50 0 -59 3 -55 15 4 8 1 15
-5 15 -6 0 -11 -7 -11 -15 0 -8 -9 -15 -20 -15 -26 0 -25 6 6 47 l25 33 95 0
c51 0 94 -3 94 -6z m768 -99 c105 -22 173 -51 222 -95 38 -33 43 -41 30 -51
-12 -8 -11 -9 7 -4 18 5 25 -1 42 -41 12 -26 24 -64 27 -85 8 -45 21 -42 -166
-39 -74 1 -137 6 -138 11 -2 5 -8 7 -12 4 -5 -3 -17 14 -28 37 -33 73 -87 103
-174 95 -107 -10 -137 -26 -180 -95 -17 -27 -21 -51 -22 -126 -1 -85 1 -95 29
-139 17 -26 38 -50 48 -53 9 -3 17 -9 17 -13 0 -4 6 -8 13 -9 127 -14 160 -14
197 3 22 10 40 21 40 25 0 3 9 15 19 27 10 11 21 29 23 39 3 18 16 19 171 24
l167 5 0 -26 c0 -70 -121 -225 -167 -214 -16 4 -21 1 -17 -8 5 -15 -48 -37
-89 -37 -15 0 -27 -4 -27 -8 0 -4 -40 -14 -89 -21 -104 -16 -260 -8 -336 16
-99 31 -154 55 -171 74 -9 10 -22 19 -29 19 -10 0 -93 120 -88 127 1 1 -4 20
-11 40 -17 51 -20 191 -5 228 7 17 13 37 14 45 1 20 45 103 58 112 6 3 16 4
24 1 7 -3 13 0 13 6 0 6 -6 11 -12 12 -10 0 -10 2 0 6 7 3 25 16 39 29 26 24
100 55 188 79 68 19 286 19 373 0z m2465 -4 c6 -6 22 -11 35 -11 54 0 207
-101 199 -132 -3 -10 0 -18 7 -18 17 0 52 -67 59 -112 l6 -38 -163 0 -164 0
-25 54 c-21 44 -33 56 -66 70 -23 8 -41 20 -41 24 0 8 -105 -2 -145 -14 -35
-11 -75 -45 -100 -84 -22 -34 -24 -48 -23 -149 1 -90 4 -111 15 -107 8 3 18
-4 24 -18 24 -52 94 -80 195 -78 54 1 118 44 142 93 l17 38 168 3 168 3 -6
-35 c-4 -19 -15 -46 -26 -61 -10 -15 -19 -32 -19 -39 0 -22 -83 -91 -149 -124
-125 -63 -363 -82 -522 -42 -30 7 -67 17 -84 21 -29 6 -29 7 -10 22 19 15 18
15 -12 10 -24 -5 -37 -1 -56 17 -14 13 -27 22 -29 21 -2 -2 -14 5 -28 16 -21
16 -23 20 -10 30 12 8 11 9 -6 5 -16 -5 -24 1 -38 31 -35 74 -48 127 -48 202
0 98 9 142 39 209 22 49 27 53 51 48 15 -3 21 -3 15 0 -20 9 -16 23 15 55 19
21 34 28 52 26 14 -2 19 -2 12 0 -18 6 -4 23 19 23 10 0 19 3 19 8 0 8 74 29
150 43 65 11 349 4 363 -10z m-3609 -11 c-19 -45 -20 -45 182 -48 l191 -2 29
35 c15 19 31 35 36 35 4 0 8 -18 8 -40 0 -29 -8 -48 -28 -72 -16 -18 -31 -41
-35 -50 -4 -13 -18 -18 -44 -19 -21 0 -96 -1 -168 -2 l-130 -2 -3 -39 c-7 -84
-11 -81 153 -78 l145 3 0 -85 c0 -75 -2 -86 -17 -87 -10 0 -75 0 -146 1 -139
1 -132 4 -141 -65 -8 -67 -8 -67 175 -66 l164 1 38 -61 c21 -34 37 -73 37 -89
l0 -30 -350 0 -350 0 0 385 0 384 78 3 c157 6 183 4 176 -12z m1953 -47 c26
-38 50 -70 54 -73 3 -3 12 -16 20 -31 42 -75 169 -271 183 -281 6 -4 14 -4 18
-2 4 3 8 104 8 225 l0 219 130 0 130 0 0 -392 c0 -247 -4 -388 -9 -382 -6 5
-57 7 -123 3 -65 -3 -118 -1 -125 4 -9 6 -18 5 -28 -3 -20 -17 -34 -5 -92 82
-45 69 -46 71 -30 98 19 32 21 40 8 40 -5 0 -13 -12 -18 -27 l-9 -26 -23 24
c-12 13 -29 37 -37 52 -9 16 -34 54 -58 85 -23 31 -51 72 -62 90 -23 41 -38
36 -42 -14 -2 -21 -7 -43 -12 -49 -5 -6 -5 -17 0 -25 6 -8 9 -85 9 -170 -1
-93 -4 -143 -9 -125 l-8 30 -1 -35 -1 -35 -102 5 c-57 3 -110 2 -119 -2 -12
-5 -18 -2 -20 10 -2 9 -3 185 -1 389 l3 372 157 4 c86 1 158 4 159 5 1 1 23
-28 50 -65z m931 24 c2 -25 -4 -47 -22 -74 -81 -122 -101 -304 -50 -452 14
-42 34 -88 44 -102 10 -14 20 -43 22 -65 l3 -39 -137 -3 c-109 -3 -138 0 -139
10 0 7 -1 40 0 73 0 33 0 200 1 372 l0 312 113 3 c172 5 162 7 165 -35z m1583
33 l150 0 20 -47 c67 -158 72 -170 63 -184 -4 -8 -3 -10 5 -5 6 4 14 0 17 -11
15 -43 125 -320 134 -335 6 -10 10 -23 10 -28 0 -6 9 -30 21 -53 12 -23 25
-57 29 -74 l8 -33 -153 0 c-163 0 -165 1 -165 51 0 27 -24 30 -205 27 l-160
-3 -11 -35 -12 -35 -156 -3 c-157 -3 -157 -2 -146 18 6 12 13 29 15 38 5 30
52 129 64 136 6 4 11 16 11 27 0 10 4 27 8 37 47 96 122 274 122 289 0 6 7 16
15 23 8 7 15 18 15 26 0 7 17 49 37 93 30 66 41 81 62 84 14 2 32 2 39 0 8 -1
81 -3 163 -3z m-4820 -75 c1 -41 2 -81 3 -87 1 -10 -35 -14 -139 -18 l-140 -5
-3 -292 -2 -293 -133 0 c-72 0 -138 4 -144 8 -10 6 -13 80 -15 292 l-3 285
-145 3 c-97 2 -140 6 -130 12 8 5 11 10 5 10 -6 0 -9 31 -7 80 l4 80 424 0
424 0 1 -75z m-427 -1103 c25 -56 46 -104 46 -107 0 -3 -11 -5 -23 -5 -16 0
-28 9 -35 25 -10 22 -18 25 -67 25 -49 0 -57 -3 -67 -25 -15 -33 -63 -37 -53
-4 22 67 96 208 112 211 27 7 37 -7 87 -120z m264 57 l57 -68 3 65 c2 35 7 64
12 64 4 0 15 3 24 6 14 5 16 -9 16 -115 0 -119 0 -121 -22 -121 -16 0 -35 17
-62 55 -22 30 -48 63 -58 72 -17 15 -18 13 -18 -55 0 -70 -1 -72 -25 -72 l-25
0 0 113 c0 63 2 116 5 119 16 15 42 -3 93 -63z m312 -11 c0 -84 17 -118 59
-118 39 0 51 27 51 109 0 43 3 80 6 83 3 3 14 4 25 1 17 -5 19 -14 19 -78 0
-120 -24 -155 -106 -155 -48 0 -73 15 -90 55 -13 31 -20 166 -9 176 2 3 13 5
25 5 18 0 20 -6 20 -78z m406 10 l59 -72 5 70 c4 61 7 69 25 69 19 0 20 -8 23
-117 3 -117 2 -118 -20 -118 -17 1 -39 21 -78 73 l-55 72 -3 -72 c-3 -70 -4
-73 -27 -73 l-25 0 0 114 c0 101 2 115 18 119 9 3 18 5 18 6 1 0 28 -31 60
-71z m455 46 c17 -16 18 -19 5 -33 -13 -13 -19 -13 -41 -1 -58 31 -115 -1
-115 -65 0 -59 68 -94 117 -60 19 13 22 13 34 -1 11 -14 10 -19 -11 -36 -20
-16 -35 -19 -79 -16 -45 4 -59 10 -83 37 -50 56 -31 157 35 187 40 18 111 12
138 -12z m190 16 c5 0 9 -52 9 -115 l0 -115 -25 0 -25 0 0 121 c0 106 2 120
16 115 9 -3 20 -6 25 -6z m327 -4 c63 -33 86 -98 57 -160 -45 -94 -190 -88
-231 9 -42 101 75 202 174 151z m336 4 c26 -9 35 -33 17 -44 -5 -3 -22 -1 -39
5 -22 8 -37 7 -52 -1 -31 -16 -20 -33 33 -50 57 -18 80 -40 80 -76 0 -41 -35
-64 -97 -64 -59 0 -93 18 -83 45 5 12 12 15 25 10 33 -15 82 -17 97 -5 22 18
4 35 -50 49 -53 13 -75 34 -75 70 0 56 75 88 144 61z m409 -82 c-2 -60 1 -90
10 -95 7 -4 35 -8 62 -8 44 0 50 -3 53 -23 3 -22 2 -23 -83 -20 l-86 3 -1 110
c0 136 -2 127 25 123 21 -3 22 -7 20 -90z m294 3 c2 -67 6 -86 20 -97 51 -39
81 -3 85 101 3 74 5 80 26 83 21 3 22 1 22 -87 0 -82 -2 -92 -26 -120 -22 -27
-32 -31 -74 -31 -82 0 -108 43 -110 176 0 57 5 66 35 62 18 -3 20 -11 22 -87z
m345 77 c8 -7 32 -42 53 -77 l38 -63 39 71 c32 58 44 71 64 71 l24 0 0 -115 0
-115 -25 0 c-24 0 -25 2 -25 68 l-1 67 -32 -52 c-17 -29 -39 -53 -47 -53 -8 0
-29 24 -47 53 l-32 52 -1 -67 c0 -66 -1 -68 -25 -68 l-25 0 0 113 c0 130 5
144 42 115z m418 -110 l0 -118 -25 0 -25 0 0 113 c0 63 2 116 5 118 2 3 13 5
25 5 19 0 20 -6 20 -118z m690 104 c42 -21 60 -53 60 -110 0 -37 -6 -50 -34
-78 -29 -29 -41 -34 -80 -34 -58 0 -101 21 -121 60 -57 111 60 220 175 162z
m334 8 c28 -10 31 -17 18 -38 -7 -10 -15 -10 -37 -2 -38 14 -75 5 -75 -19 0
-12 13 -22 43 -30 65 -19 87 -37 87 -71 0 -58 -78 -87 -159 -59 -33 12 -36 16
-22 38 8 12 14 12 39 2 43 -18 87 -11 87 14 0 15 -12 23 -50 33 -27 8 -56 19
-62 24 -14 11 -17 66 -5 84 21 32 86 43 136 24z m347 -12 c78 -44 78 -162 -1
-203 -62 -32 -146 -11 -175 45 -60 115 60 223 176 158z m327 16 c15 -5 22 -14
22 -31 0 -22 -3 -24 -22 -18 -51 15 -64 16 -82 2 -27 -20 -14 -33 47 -51 63
-18 84 -46 68 -88 -6 -15 -19 -32 -30 -37 -28 -15 -114 -14 -136 3 -23 17 -13
51 13 41 38 -15 82 -17 97 -5 22 18 4 35 -50 49 -56 14 -83 49 -69 89 15 43
77 63 142 46z m-1488 -11 c0 -13 99 -124 103 -116 2 5 3 34 2 66 -1 53 1 57
22 57 13 0 23 -6 24 -15 0 -8 0 -55 0 -105 0 -49 0 -94 0 -100 -1 -5 -9 -10
-20 -10 -11 0 -41 28 -75 70 -31 39 -59 70 -61 70 -3 0 -3 -27 -1 -59 4 -66
-3 -85 -28 -79 -15 3 -17 19 -19 116 l-2 112 28 0 c15 0 27 -3 27 -7z"/>
<path d="M3260 5852 l0 -81 95 -3 c52 -2 110 0 127 4 46 9 71 44 64 87 -9 60
-23 66 -161 70 l-125 3 0 -80z"/>
<path d="M5270 5860 l0 -50 128 0 c99 0 132 3 150 16 27 18 28 45 4 67 -15 14
-42 17 -150 17 l-132 0 0 -50z"/>
<path d="M5270 5580 l0 -60 143 0 c129 0 146 2 161 19 25 27 17 72 -14 88 -16
8 -71 13 -157 13 l-133 0 0 -60z"/>
<path d="M4328 5123 c7 -3 16 -2 19 1 4 3 -2 6 -13 5 -11 0 -14 -3 -6 -6z"/>
<path d="M4312 4660 c0 -14 2 -19 5 -12 2 6 2 18 0 25 -3 6 -5 1 -5 -13z"/>
<path d="M4058 4563 c7 -3 16 -2 19 1 4 3 -2 6 -13 5 -11 0 -14 -3 -6 -6z"/>
<path d="M6828 5123 c7 -3 16 -2 19 1 4 3 -2 6 -13 5 -11 0 -14 -3 -6 -6z"/>
<path d="M6720 4440 c0 -6 7 -10 15 -10 8 0 15 2 15 4 0 2 -7 6 -15 10 -8 3
-15 1 -15 -4z"/>
<path d="M3536 5124 c-4 -10 -1 -14 6 -12 15 5 23 28 10 28 -5 0 -13 -7 -16
-16z"/>
<path d="M3175 5070 c3 -5 8 -10 11 -10 2 0 4 5 4 10 0 6 -5 10 -11 10 -5 0
-7 -4 -4 -10z"/>
<path d="M3540 4490 c0 -5 5 -10 10 -10 6 0 10 5 10 10 0 6 -4 10 -10 10 -5 0
-10 -4 -10 -10z"/>
<path d="M4972 4710 c0 -14 2 -19 5 -12 2 6 2 18 0 25 -3 6 -5 1 -5 -13z"/>
<path d="M4972 4630 c0 -19 2 -27 5 -17 2 9 2 25 0 35 -3 9 -5 1 -5 -18z"/>
<path d="M5980 5149 c0 -5 5 -7 10 -4 6 3 10 8 10 11 0 2 -4 4 -10 4 -5 0 -10
-5 -10 -11z"/>
<path d="M5922 4980 c0 -14 2 -19 5 -12 2 6 2 18 0 25 -3 6 -5 1 -5 -13z"/>
<path d="M7546 4938 c-9 -12 -16 -31 -16 -41 0 -11 -6 -33 -14 -50 -58 -134
-67 -160 -54 -168 20 -13 196 -11 204 2 3 6 2 21 -4 32 -6 12 -27 73 -49 135
-21 61 -41 112 -45 112 -4 0 -14 -10 -22 -22z"/>
<path d="M7480 4870 c0 -5 5 -10 10 -10 6 0 10 5 10 10 0 6 -4 10 -10 10 -5 0
-10 -4 -10 -10z"/>
<path d="M7548 4653 c7 -3 16 -2 19 1 4 3 -2 6 -13 5 -11 0 -14 -3 -6 -6z"/>
<path d="M7808 4473 c7 -3 16 -2 19 1 4 3 -2 6 -13 5 -11 0 -14 -3 -6 -6z"/>
<path d="M2118 5023 c7 -3 16 -2 19 1 4 3 -2 6 -13 5 -11 0 -14 -3 -6 -6z"/>
<path d="M2272 4050 c-17 -49 -15 -55 13 -57 33 -2 35 5 15 52 l-17 40 -11
-35z"/>
<path d="M4230 4087 c-87 -44 -31 -175 59 -137 63 26 62 117 -1 139 -17 6 -31
11 -32 11 -1 0 -12 -6 -26 -13z"/>
<path d="M6719 4088 c-52 -17 -61 -101 -16 -133 30 -21 60 -19 91 6 28 22 35
64 16 99 -13 25 -59 39 -91 28z"/>
<path d="M7394 4085 c-52 -22 -62 -90 -18 -124 35 -28 69 -26 99 4 61 60 -2
153 -81 120z"/>
</g>
</svg>
